<?xml version="1.0" encoding="UTF-8"?>
<svg width="78px" height="38px" viewBox="0 0 78 38" version="1.1" xmlns="http://www.w3.org/2000/svg" xmlns:xlink="http://www.w3.org/1999/xlink">
    <title>Logo</title>
    <defs>
        <polygon id="path-1" points="0 0 9.89302687 0 9.89302687 12.9784854 0 12.9784854"></polygon>
        <polygon id="path-3" points="0 0 22.1920502 0 22.1920502 37.8100866 0 37.8100866"></polygon>
    </defs>
    <g id="Onboarding-2023" stroke="none" stroke-width="1" fill="none" fill-rule="evenodd">
        <g id="Home-Copy-26" transform="translate(-818, -44)">
            <g id="Logo" transform="translate(818, 44)">
                <path d="M29.5198794,14.7668367 C28.4816477,14.7668367 27.2436363,14.0353334 27.2436363,10.5499575 C27.2436363,7.06458167 28.4812704,6.33317334 29.5198794,6.33317334 C30.5584884,6.33317334 31.7961225,7.06458167 31.7961225,10.5499575 C31.7961225,14.0353334 30.5584884,14.7668367 29.5198794,14.7668367 M34.2123435,5.59596999 C31.5117336,3.26646438 27.5284968,3.26646438 24.827887,5.59596999 C23.4735732,6.87543581 22.7321813,8.68044403 22.7932093,10.5495775 C22.732087,12.418711 23.4734789,14.2238143 24.827887,15.5032801 C27.5284968,17.8326907 31.5117336,17.8326907 34.2123435,15.5032801 C35.5667515,14.2238143 36.3083321,12.418806 36.2473984,10.5495775 C36.3083321,8.68034903 35.5667515,6.87534081 34.2123435,5.59596999" id="Fill-1" fill="#FFFFFF"></path>
                <path d="M57.0497817,17.25068 C60.0235558,17.25068 61.51747,16.13205 61.6467892,15.0930302 C61.7281913,14.5427877 61.5910433,13.9823802 61.2652458,13.5331231 C60.3249231,14.0341554 59.2809376,14.3055716 58.2173325,14.3256167 C55.7503649,14.3256167 54.3551143,12.7559246 54.3473796,10.1285926 C54.3408712,7.88183239 55.1662122,6.52570122 56.7546397,6.55866637 C57.866539,6.58184648 58.6717888,7.29472972 58.8875094,8.89244699 C60.6774144,8.86233186 62.051725,8.32757442 62.1086028,7.32560486 C62.2240562,5.2920256 59.5736271,3.84972904 56.7803904,3.84972904 C54.8447537,3.84972904 50.3939494,4.7650582 50.2432186,10.1789429 C50.1302176,14.2769765 53.0377758,17.251535 57.0497817,17.251535" id="Fill-3" fill="#FFFFFF"></path>
                <path d="M39.6256839,22.6624272 C41.0176332,22.6624272 41.8851372,21.8720236 41.8851372,20.6008228 C41.8851372,19.1931064 40.7228685,18.456758 39.5749372,18.456758 C38.2026075,18.456758 37.3158612,19.2982719 37.3158612,20.6008228 C37.3080322,21.1267452 37.5054538,21.6347125 37.8656797,22.0154742 C38.3402272,22.4642563 38.9760698,22.6983373 39.6260612,22.6636622" id="Fill-5" fill="#FFFFFF"></path>
                <path d="M44.4568901,10.8905816 L44.4568901,12.3749633 C44.4568901,13.5084135 43.7555861,14.271647 42.7120722,14.271647 C42.0382167,14.3049921 41.4651,13.7818248 41.431992,13.1031417 C41.4301999,13.0665665 41.4300112,13.0299913 41.4315204,12.9934162 C41.4315204,11.8839061 42.3784458,11.1409077 44.4572674,10.8905816 M41.3402141,17.2506705 C42.7731003,17.1817952 44.1068512,16.6779129 44.7942895,15.2995517 C45.3198666,16.4161867 46.4375197,17.12755 47.6644951,17.1266 C49.2709387,17.1266 50.0511924,16.3237513 50.1650423,15.4772975 C50.2250328,15.0140754 50.1772102,14.5431582 50.0254418,14.1017862 C48.6777308,14.2221518 48.5594476,13.3183176 48.5594476,12.9023107 L48.5594476,9.06277327 C48.5594476,4.19732612 44.872013,3.84895953 43.037964,3.84895953 C40.2209575,3.84895953 38.0024411,5.07019009 37.9349046,6.01439939 C37.9060413,6.48759655 38.0330023,6.95718368 38.2959795,7.35039047 C39.3777892,6.86066324 40.5488301,6.60283207 41.7348686,6.59333203 C43.6086283,6.59333203 44.4368933,7.20978983 44.407747,9.0466232 C41.7978775,9.0466232 37.1205997,9.40990485 36.9515698,13.1096967 C36.797632,16.4405069 39.6916074,17.3302809 41.341063,17.2506705" id="Fill-7" fill="#FFFFFF"></path>
                <path d="M35.2042712,22.7131479 L31.5766384,22.7131479 L31.5766384,30.1832219 C31.5766384,31.6605736 30.825814,32.5779928 29.6173262,32.5779928 C28.3891246,32.5779928 27.6579197,31.6828987 27.6579197,30.1832219 L27.6579197,23.4388562 C27.6579197,22.8558386 27.3713613,22.519347 26.5206471,22.5420521 C25.5240125,22.5628572 24.5313396,22.6755277 23.5550792,22.8784487 L23.5550792,30.0339762 C23.5550792,33.5325572 25.9347965,35.7932825 29.6177035,35.7932825 C33.3006106,35.7932825 35.6804222,33.5325572 35.6804222,30.0339762 L35.6804222,23.1922351 C35.6799506,22.9280389 35.4673427,22.7140029 35.2050258,22.7135279" id="Fill-9" fill="#FFFFFF"></path>
                <path d="M71.1802881,9.28004876 L71.1802881,14.1153808 C71.1802881,14.9362795 71.3898775,17.5447064 74.3116787,17.5447064 C75.9746228,17.5447064 76.7754393,16.7418577 76.8908927,15.8954039 C76.9508832,15.4321818 76.9030606,14.9612646 76.7512922,14.5198926 C75.4035812,14.6402582 75.2852037,13.736424 75.2852037,13.3204172 L75.2852037,9.43100445 C75.2852037,5.9711837 73.869579,4.14290037 71.1913241,4.14290037 C69.7158031,4.17966554 68.3258347,4.84827858 67.3700427,5.98106374 L67.3700427,0.8978756 C67.3700427,0.314857946 67.0834844,-0.0215385856 66.2327701,0.00107151734 C65.2361355,0.0219716125 64.2434626,0.134547125 63.2672022,0.337563049 L63.2672022,16.6928375 C63.2672022,16.9670088 63.353132,17.247355 63.9901066,17.247355 L67.3708916,17.247355 L67.3889077,8.17215371 C67.9830588,7.69886156 68.7023788,7.41215025 69.4571649,7.34745496 C70.6276398,7.34745496 71.1818916,7.95811774 71.1818916,9.28128376" id="Fill-11" fill="#FFFFFF"></path>
                <path d="M61.3823405,30.9381809 C61.3823405,32.071631 60.6810365,32.8348645 59.6375226,32.8348645 C58.9636671,32.8682096 58.3905504,32.3450423 58.3574424,31.6663592 C58.3556502,31.629784 58.3554616,31.5932088 58.3569708,31.5566337 C58.3569708,30.4471236 59.3038962,29.7041252 61.3827178,29.4537991 L61.3823405,30.9381809 Z M65.484898,31.4713233 L65.484898,27.6296958 C65.484898,22.7642486 61.7974634,22.4158821 59.9634144,22.4158821 C57.1464079,22.4158821 54.9278914,23.6372076 54.860355,24.5814169 C54.8314916,25.0546141 54.9584526,25.5241062 55.2214298,25.917313 C56.3032396,25.4276808 57.4743748,25.1700396 58.6603189,25.1607296 C60.5340787,25.1607296 61.3623437,25.7767124 61.3331973,27.6136407 C58.7233278,27.6136407 54.04605,27.9768274 53.8770202,31.6766192 C53.7230823,35.0074294 56.6170578,35.8972034 58.2665134,35.8175931 C59.6993053,35.7487178 61.0331505,35.2449305 61.7204945,33.8664742 C62.2461659,34.9831093 63.363819,35.6945675 64.5907944,35.6935225 C66.1976153,35.6935225 66.9774917,34.8906738 67.0913416,34.04422 C67.1512378,33.5809979 67.1035095,33.1100807 66.9516468,32.6687087 C65.6039358,32.7890743 65.4856526,31.8852402 65.4856526,31.4692333 L65.484898,31.4713233 Z" id="Fill-13" fill="#FFFFFF"></path>
                <path d="M41.6517591,31.4713138 L41.6517591,24.498472 C41.6517591,23.9154544 41.3652007,23.5794379 40.5144865,23.601668 C39.5178519,23.622568 38.525179,23.7351436 37.5488243,23.9381595 L37.5488243,32.2646624 C37.5488243,33.0855611 37.7584137,35.693893 40.6803092,35.693893 C42.3436306,35.693893 43.1439755,34.8911393 43.2594289,34.0445905 C43.3194194,33.5814634 43.2715968,33.1105462 43.1198284,32.6690792 C41.7721174,32.7895398 41.6538342,31.8857057 41.6538342,31.4696988" id="Fill-15" fill="#FFFFFF"></path>
                <path d="M51.2507476,32.7754892 C49.9980216,32.7754892 49.5489418,32.1928516 49.5489418,30.8268403 L49.5489418,25.7552423 L52.9497237,25.7552423 L52.9497237,23.4409367 C52.9497237,22.7993038 52.6713716,22.7131384 52.3990563,22.7131384 L49.5484702,22.7131384 L49.5484702,19.6343644 C49.5484702,19.0512517 49.2619118,18.7148552 48.4111975,18.7374653 C47.414563,18.7583654 46.4218901,18.8710359 45.4455354,19.0739568 L45.4455354,22.7135184 L43.5050881,22.7135184 C43.3568097,23.4374217 43.2745586,24.1734851 43.2594666,24.9124934 C43.2430541,25.5420613 43.4886756,25.7557173 43.9144572,25.7557173 L45.4451581,25.7557173 L45.4451581,30.970766 C45.4451581,32.6060084 45.9421548,35.8180681 49.5881809,35.8180681 C52.5538431,35.8180681 52.9915096,34.5125721 53.056122,33.9575796 C53.0931916,33.4765924 53.0200899,32.9934202 52.8424766,32.5453982 C52.3264263,32.7030039 51.7895302,32.7807142 51.2503703,32.7758692" id="Fill-17" fill="#FFFFFF"></path>
                <g id="Group-21" transform="translate(68.107, 22.5418)">
                    <mask id="mask-2" fill="white">
                        <use xlink:href="#path-1"></use>
                    </mask>
                    <g id="Clip-20"></g>
                    <path d="M9.89173462,1.32212229 C9.86023018,0.556038803 8.86821754,0.0352464324 7.6957618,0.073151605 C6.30871741,0.11808681 4.93770822,0.763424747 4.10293483,2.73230871 L4.10293483,0.897850359 C4.10293483,0.314832705 3.81637646,-0.0212788249 2.96566219,0.00104627673 C1.96893332,0.0218513714 0.976354738,0.134521884 0,0.337442808 L0,12.4239678 C0,12.6981391 0.086024106,12.9784854 0.722998654,12.9784854 L4.10331213,12.9784854 L4.10331213,6.10387406 C4.10331213,3.83602373 5.53912237,3.12855551 6.53509664,3.05797019 C7.14754677,2.99688491 7.76027988,3.17073571 8.25086253,3.54494241 C8.99640478,3.04609514 9.93427505,2.34926697 9.89211192,1.32250229" id="Fill-19" fill="#FFFFFF" mask="url(#mask-2)"></path>
                </g>
                <g id="Group-24" transform="translate(0, 0.1899)">
                    <mask id="mask-4" fill="white">
                        <use xlink:href="#path-3"></use>
                    </mask>
                    <g id="Clip-23"></g>
                    <path d="M11.5795521,35.4450414 C4.80826647,35.7707978 3.77371341,31.8219149 3.92152018,30.1413572 C4.06451639,28.4526295 5.04681358,26.9518127 6.53138968,26.1537141 C16.1065707,27.5737805 17.7896059,28.7154957 17.8993055,31.1156816 C17.9885366,33.0803856 15.8883977,35.2388904 11.5795521,35.4450414 M13.1708094,21.3786123 C7.18968161,20.3560277 4.81232243,19.4629286 4.43813643,17.582775 C4.3107038,16.8896519 4.39899169,16.1738236 4.69073792,15.5331407 C6.41423843,16.919292 8.89186474,17.9501417 12.3410352,17.9501417 C18.0483385,17.9501417 21.0782358,14.8032524 21.6726699,13.4377162 C22.1811742,12.2703509 21.4835489,11.1740459 20.6848076,11.9121042 C19.8692764,12.6670727 18.2411381,13.8974233 15.2136933,14.0746941 C13.1872219,14.1934446 8.29214844,13.6005469 8.29214844,7.67498994 C8.29214844,6.80583098 8.20244567,1.81013824 12.5866567,1.8451934 C15.6083477,1.86913351 16.1974997,3.80372232 16.226929,5.95481711 C16.2580561,8.21687241 18.0933314,8.79780005 19.7104336,8.48439362 C21.0913469,8.21687241 21.7573735,7.14849754 21.6653126,5.82827653 C21.5682525,4.43167517 20.3408998,0 11.9512857,0 C8.58323439,0 1.2960871,1.6262174 1.2960871,8.9635758 C1.36569871,10.7891041 2.01323762,12.5444271 3.14409618,13.9728536 C2.23725873,14.6326316 -0.213768017,16.5536354 0.0146863523,20.0059511 C0.213617097,23.0064447 2.85338753,24.9633586 4.70017039,25.6032816 C3.32378469,26.148394 0.733157422,27.8574518 0.800693891,31.0644764 C0.904639686,36.025969 6.41838872,37.9235076 10.9912491,37.8052321 C21.3025399,37.5376159 22.2802152,31.5947688 22.1864564,29.1002475 C22.0206336,24.7056225 19.5564958,22.4700723 13.171281,21.3786123" id="Fill-22" fill="#FFFFFF" mask="url(#mask-4)"></path>
                </g>
            </g>
        </g>
    </g>
</svg>